<?xml version="1.0" encoding="UTF-8" standalone="no"?>
<!DOCTYPE svg PUBLIC "-//W3C//DTD SVG 1.1//EN"
 "http://www.w3.org/Graphics/SVG/1.1/DTD/svg11.dtd">
<!-- Generated by graphviz version 14.1.2 (20260124.0452)
 -->
<!-- Title: bridge_ontology Pages: 1 -->
<svg width="841pt" height="638pt"
 viewBox="0.00 0.00 841.00 638.00" xmlns="http://www.w3.org/2000/svg" xmlns:xlink="http://www.w3.org/1999/xlink">
<g id="graph0" class="graph" transform="scale(1 1) rotate(0) translate(36 601.5)">
<title>bridge_ontology</title>
<polygon fill="white" stroke="none" points="-36,36 -36,-601.5 805,-601.5 805,36 -36,36"/>
<text xml:space="preserve" text-anchor="start" x="269" y="-549.2" font-family="Helvetica,sans-Serif" font-weight="bold" font-size="14.00">Ontologia de Interconexion (Bridge)</text>
<text xml:space="preserve" text-anchor="start" x="222.12" y="-535.2" font-family="Helvetica,sans-Serif" font-style="italic" font-size="14.00">bridge&#45;ontology v2.0 &#45; Alineacion Semantica Dinamica</text>
<g id="clust1" class="cluster">
<title>cluster_movie</title>
<path fill="#e8f0fe" stroke="#2563eb" d="M253.75,-244.5C253.75,-244.5 347,-244.5 347,-244.5 353,-244.5 359,-250.5 359,-256.5 359,-256.5 359,-308.5 359,-308.5 359,-314.5 353,-320.5 347,-320.5 347,-320.5 253.75,-320.5 253.75,-320.5 247.75,-320.5 241.75,-314.5 241.75,-308.5 241.75,-308.5 241.75,-256.5 241.75,-256.5 241.75,-250.5 247.75,-244.5 253.75,-244.5"/>
<text xml:space="preserve" text-anchor="start" x="249.75" y="-304.2" font-family="Helvetica,sans-Serif" font-weight="bold" font-size="14.00">movie&#45;ontology</text>
</g>
<g id="clust2" class="cluster">
<title>cluster_context</title>
<path fill="#fff7ed" stroke="#d97706" d="M593.51,-157.5C593.51,-157.5 712.99,-157.5 712.99,-157.5 718.99,-157.5 724.99,-163.5 724.99,-169.5 724.99,-169.5 724.99,-509.5 724.99,-509.5 724.99,-515.5 718.99,-521.5 712.99,-521.5 712.99,-521.5 593.51,-521.5 593.51,-521.5 587.51,-521.5 581.51,-515.5 581.51,-509.5 581.51,-509.5 581.51,-169.5 581.51,-169.5 581.51,-163.5 587.51,-157.5 593.51,-157.5"/>
<text xml:space="preserve" text-anchor="start" x="598.5" y="-505.2" font-family="Helvetica,sans-Serif" font-weight="bold" font-size="14.00">context&#45;ontology</text>
</g>
<!-- mo_Movie -->
<g id="node1" class="node">
<title>mo_Movie</title>
<ellipse fill="#2563eb" stroke="black" cx="299.88" cy="-270.5" rx="27" ry="18"/>
<text xml:space="preserve" text-anchor="middle" x="299.88" y="-267" font-family="Helvetica,sans-Serif" font-size="10.00" fill="#ffffff">Movie</text>
</g>
<!-- co_ContextSnapshot -->
<g id="node2" class="node">
<title>co_ContextSnapshot</title>
<ellipse fill="#d97706" stroke="black" cx="653.25" cy="-471.5" rx="55.17" ry="18"/>
<text xml:space="preserve" text-anchor="middle" x="653.25" y="-468" font-family="Helvetica,sans-Serif" font-size="10.00" fill="#ffffff">ContextSnapshot</text>
</g>
<!-- mo_Movie&#45;&gt;co_ContextSnapshot -->
<g id="edge2" class="edge">
<title>mo_Movie&#45;&gt;co_ContextSnapshot</title>
<path fill="none" stroke="#059669" stroke-width="2" d="M310.02,-287.39C324.55,-312.7 355.29,-360.41 394,-387.5 453.43,-429.1 534.71,-451.04 590.11,-461.92"/>
<polygon fill="#059669" stroke="#059669" stroke-width="2" points="599.82,-463.75 589.16,-466.32 597.21,-463.77 589.9,-462.39 589.99,-461.9 590.08,-461.41 597.39,-462.79 590.83,-457.48 599.82,-463.75"/>
<text xml:space="preserve" text-anchor="start" x="407.88" y="-445.57" font-family="Helvetica,sans-Serif" font-weight="bold" font-size="8.00" fill="#1f2937">isRecommendedIn</text>
<text xml:space="preserve" text-anchor="start" x="413.88" y="-437.57" font-family="Helvetica,sans-Serif" font-style="italic" font-size="8.00" fill="#1f2937">inv: recommends</text>
</g>
<!-- co_RequirementContext -->
<g id="node3" class="node">
<title>co_RequirementContext</title>
<ellipse fill="#d97706" stroke="black" cx="653.25" cy="-399.5" rx="63.74" ry="18"/>
<text xml:space="preserve" text-anchor="middle" x="653.25" y="-396" font-family="Helvetica,sans-Serif" font-size="10.00" fill="#ffffff">RequirementContext</text>
</g>
<!-- mo_Movie&#45;&gt;co_RequirementContext -->
<g id="edge3" class="edge">
<title>mo_Movie&#45;&gt;co_RequirementContext</title>
<path fill="none" stroke="#059669" stroke-width="2" d="M318.56,-283.7C336.69,-296.68 366.08,-316.28 394,-328.5 457.23,-356.18 533.96,-375.63 587.27,-387.09"/>
<polygon fill="#059669" stroke="#059669" stroke-width="2" points="596.91,-389.12 586.19,-391.46 594.29,-389.08 587.02,-387.55 587.12,-387.06 587.22,-386.57 594.5,-388.1 588.05,-382.65 596.91,-389.12"/>
<text xml:space="preserve" text-anchor="start" x="402.62" y="-372.27" font-family="Helvetica,sans-Serif" font-weight="bold" font-size="8.00" fill="#1f2937">satisfiesRequirement</text>
<text xml:space="preserve" text-anchor="start" x="415" y="-364.27" font-family="Helvetica,sans-Serif" font-style="italic" font-size="8.00" fill="#1f2937">inv: isSatisfiedBy</text>
</g>
<!-- co_EmotionalContext -->
<g id="node4" class="node">
<title>co_EmotionalContext</title>
<ellipse fill="#d97706" stroke="black" cx="653.25" cy="-327.5" rx="56.53" ry="18"/>
<text xml:space="preserve" text-anchor="middle" x="653.25" y="-324" font-family="Helvetica,sans-Serif" font-size="10.00" fill="#ffffff">EmotionalContext</text>
</g>
<!-- mo_Movie&#45;&gt;co_EmotionalContext -->
<g id="edge4" class="edge">
<title>mo_Movie&#45;&gt;co_EmotionalContext</title>
<path fill="none" stroke="#059669" stroke-width="2" d="M326.14,-275.3C344.85,-278.81 370.99,-283.62 394,-287.5 460.47,-298.71 536.78,-310.39 589.12,-318.21"/>
<polygon fill="#059669" stroke="#059669" stroke-width="2" points="598.81,-319.65 588.26,-322.63 596.21,-319.77 588.85,-318.67 588.92,-318.18 589,-317.68 596.35,-318.78 589.59,-313.73 598.81,-319.65"/>
<text xml:space="preserve" text-anchor="start" x="412" y="-312.96" font-family="Helvetica,sans-Serif" font-weight="bold" font-size="8.00" fill="#1f2937">alignsWithMood</text>
<text xml:space="preserve" text-anchor="start" x="413.5" y="-304.96" font-family="Helvetica,sans-Serif" font-style="italic" font-size="8.00" fill="#1f2937">inv: isAlignedWith</text>
</g>
<!-- co_SocialContext -->
<g id="node5" class="node">
<title>co_SocialContext</title>
<ellipse fill="#d97706" stroke="black" cx="653.25" cy="-255.5" rx="46.6" ry="18"/>
<text xml:space="preserve" text-anchor="middle" x="653.25" y="-252" font-family="Helvetica,sans-Serif" font-size="10.00" fill="#ffffff">SocialContext</text>
</g>
<!-- mo_Movie&#45;&gt;co_SocialContext -->
<g id="edge5" class="edge">
<title>mo_Movie&#45;&gt;co_SocialContext</title>
<path fill="none" stroke="#059669" stroke-width="2" d="M326.97,-269.38C345.64,-268.57 371.37,-267.47 394,-266.5 462.76,-263.56 541.81,-260.19 594.15,-257.97"/>
<polygon fill="#059669" stroke="#059669" stroke-width="2" points="604.1,-257.55 594.3,-262.47 601.56,-258.15 594.13,-258.47 594.11,-257.97 594.09,-257.47 601.52,-257.16 593.92,-253.47 604.1,-257.55"/>
<text xml:space="preserve" text-anchor="start" x="394" y="-275.9" font-family="Helvetica,sans-Serif" font-weight="bold" font-size="8.00" fill="#1f2937">suitableForSocialContext</text>
<text xml:space="preserve" text-anchor="start" x="413.88" y="-267.9" font-family="Helvetica,sans-Serif" font-style="italic" font-size="8.00" fill="#1f2937">inv: isSuitableFor</text>
</g>
<!-- scoring_box -->
<g id="node7" class="node">
<title>scoring_box</title>
<polygon fill="#ecfdf5" stroke="#059669" stroke-width="2" points="537.5,-0.5 537.5,-128.5 769,-128.5 769,-0.5 537.5,-0.5"/>
<text xml:space="preserve" text-anchor="middle" x="579.62" y="-61" font-family="Helvetica,sans-Serif" font-size="10.00" fill="#1f2937">Scoring Metrics</text>
<polyline fill="none" stroke="#059669" stroke-width="2" points="621.75,-0.5 621.75,-128.5"/>
<text xml:space="preserve" text-anchor="start" x="629.75" y="-115" font-family="Helvetica,sans-Serif" font-size="10.00" fill="#1f2937">compatibilityScore: float</text>
<text xml:space="preserve" text-anchor="start" x="629.75" y="-103" font-family="Helvetica,sans-Serif" font-size="10.00" fill="#1f2937">moodMatchScore: float</text>
<text xml:space="preserve" text-anchor="start" x="629.75" y="-91" font-family="Helvetica,sans-Serif" font-size="10.00" fill="#1f2937">socialMatchScore: float</text>
<text xml:space="preserve" text-anchor="start" x="629.75" y="-79" font-family="Helvetica,sans-Serif" font-size="10.00" fill="#1f2937">energyMatchScore: float</text>
<text xml:space="preserve" text-anchor="start" x="629.75" y="-67" font-family="Helvetica,sans-Serif" font-size="10.00" fill="#1f2937">temporalMatchScore: float</text>
<text xml:space="preserve" text-anchor="start" x="629.75" y="-55" font-family="Helvetica,sans-Serif" font-size="10.00" fill="#1f2937">requirementMatchScore: float</text>
<text xml:space="preserve" text-anchor="start" x="629.75" y="-43" font-family="Helvetica,sans-Serif" font-size="10.00" fill="#1f2937">compatibleMood: string</text>
<text xml:space="preserve" text-anchor="start" x="629.75" y="-31" font-family="Helvetica,sans-Serif" font-size="10.00" fill="#1f2937">compatibleCompanion: string</text>
<text xml:space="preserve" text-anchor="start" x="629.75" y="-19" font-family="Helvetica,sans-Serif" font-size="10.00" fill="#1f2937">compatibleEnergyLevel: string</text>
<text xml:space="preserve" text-anchor="start" x="629.75" y="-7" font-family="Helvetica,sans-Serif" font-size="10.00" fill="#1f2937">isKidFriendly: boolean</text>
</g>
<!-- mo_Movie&#45;&gt;scoring_box -->
<g id="edge1" class="edge">
<title>mo_Movie&#45;&gt;scoring_box</title>
<path fill="none" stroke="#059669" stroke-dasharray="1,5" d="M309.68,-253.63C323.98,-227.83 354.66,-178.6 394,-150.75 433.12,-123.06 481.76,-103.77 526.24,-90.58"/>
<polygon fill="#059669" stroke="#059669" points="527.06,-93.98 535.7,-87.85 525.12,-87.26 527.06,-93.98"/>
<text xml:space="preserve" text-anchor="middle" x="444.25" y="-152.9" font-family="Helvetica,sans-Serif" font-size="8.00" fill="#059669">bridge data props</text>
</g>
<!-- co_User -->
<g id="node6" class="node">
<title>co_User</title>
<ellipse fill="#d97706" stroke="black" cx="653.25" cy="-183.5" rx="27" ry="18"/>
<text xml:space="preserve" text-anchor="middle" x="653.25" y="-180" font-family="Helvetica,sans-Serif" font-size="10.00" fill="#ffffff">User</text>
</g>
<!-- co_User&#45;&gt;mo_Movie -->
<g id="edge6" class="edge">
<title>co_User&#45;&gt;mo_Movie</title>
<path fill="none" stroke="#059669" stroke-width="2" d="M626.68,-187.67C580,-195.54 478.02,-213.94 394,-237.5 374.24,-243.04 352.6,-250.61 335.16,-257.11"/>
<polygon fill="#059669" stroke="#059669" stroke-width="2" points="325.84,-260.63 333.6,-252.88 328.06,-259.26 335.02,-256.63 335.19,-257.09 335.37,-257.56 328.42,-260.19 336.79,-261.3 325.84,-260.63"/>
<text xml:space="preserve" text-anchor="start" x="419.88" y="-246.9" font-family="Helvetica,sans-Serif" font-weight="bold" font-size="8.00" fill="#1f2937">hasWatched</text>
<text xml:space="preserve" text-anchor="start" x="409.75" y="-238.9" font-family="Helvetica,sans-Serif" font-style="italic" font-size="8.00" fill="#1f2937">inv: wasWatchedBy</text>
</g>
<!-- co_User&#45;&gt;mo_Movie -->
<g id="edge7" class="edge">
<title>co_User&#45;&gt;mo_Movie</title>
<path fill="none" stroke="#059669" stroke-width="2" d="M626.95,-178.43C579.39,-170.09 474.25,-157.31 394,-188.5 364.28,-200.05 337.8,-225.65 320.75,-245.2"/>
<polygon fill="#059669" stroke="#059669" stroke-width="2" points="314.51,-252.62 317.5,-242.07 315.77,-250.34 320.56,-244.64 320.94,-244.97 321.32,-245.29 316.54,-250.98 324.39,-247.86 314.51,-252.62"/>
<text xml:space="preserve" text-anchor="start" x="425.5" y="-197.9" font-family="Helvetica,sans-Serif" font-weight="bold" font-size="8.00" fill="#1f2937">hasRated</text>
<text xml:space="preserve" text-anchor="start" x="414.62" y="-189.9" font-family="Helvetica,sans-Serif" font-style="italic" font-size="8.00" fill="#1f2937">inv: wasRatedBy</text>
</g>
<!-- swrl_box -->
<g id="node8" class="node">
<title>swrl_box</title>
<polygon fill="#fef3c7" stroke="none" points="142,-322.5 0,-322.5 0,-218.5 142,-218.5 142,-322.5"/>
<polygon fill="#fef3c7" stroke="none" points="8,-300.5 8,-318.5 134,-318.5 134,-300.5 8,-300.5"/>
<polygon fill="none" stroke="#d97706" points="8,-300.5 8,-318.5 134,-318.5 134,-300.5 8,-300.5"/>
<text xml:space="preserve" text-anchor="start" x="41" y="-307" font-family="Helvetica,sans-Serif" font-weight="bold" font-size="10.00" fill="#1f2937">SWRL Rules</text>
<polygon fill="#fffbeb" stroke="none" points="8,-222.5 8,-300.5 134,-300.5 134,-222.5 8,-222.5"/>
<polygon fill="none" stroke="#d97706" points="8,-222.5 8,-300.5 134,-300.5 134,-222.5 8,-222.5"/>
<text xml:space="preserve" text-anchor="start" x="11" y="-288" font-family="Helvetica,sans-Serif" font-size="10.00" fill="#1f2937">1. runtime ≤ availableTime</text>
<text xml:space="preserve" text-anchor="start" x="11" y="-276" font-family="Helvetica,sans-Serif" font-size="10.00" fill="#1f2937"> &#160;&#160;⟹ satisfiesRequirement</text>
<text xml:space="preserve" text-anchor="start" x="11" y="-264" font-family="Helvetica,sans-Serif" font-size="10.00" fill="#1f2937">2. hasChildren=true</text>
<text xml:space="preserve" text-anchor="start" x="11" y="-252" font-family="Helvetica,sans-Serif" font-size="10.00" fill="#1f2937"> &#160;&#160;⟹ solo cert G/PG</text>
<text xml:space="preserve" text-anchor="start" x="11" y="-240" font-family="Helvetica,sans-Serif" font-size="10.00" fill="#1f2937">3. excludedGenre match</text>
<text xml:space="preserve" text-anchor="start" x="11" y="-228" font-family="Helvetica,sans-Serif" font-size="10.00" fill="#1f2937"> &#160;&#160;⟹ violatesConstraint</text>
</g>
<!-- swrl_box&#45;&gt;mo_Movie -->
<g id="edge8" class="edge">
<title>swrl_box&#45;&gt;mo_Movie</title>
<path fill="none" stroke="#d97706" stroke-dasharray="1,5" d="M141.92,-270.5C181.35,-270.5 229.04,-270.5 261.43,-270.5"/>
<polygon fill="#d97706" stroke="#d97706" points="261.11,-274 271.11,-270.5 261.11,-267 261.11,-274"/>
<text xml:space="preserve" text-anchor="middle" x="195.88" y="-272.65" font-family="Helvetica,sans-Serif" font-size="8.00" fill="#d97706">infiere</text>
</g>
</g>
</svg>
