<?xml version="1.0" encoding="UTF-8" standalone="no"?>
<!DOCTYPE svg PUBLIC "-//W3C//DTD SVG 1.1//EN"
 "http://www.w3.org/Graphics/SVG/1.1/DTD/svg11.dtd">
<!-- Generated by graphviz version 14.1.2 (20260124.0452)
 -->
<!-- Title: context_ontology Pages: 1 -->
<svg width="596pt" height="476pt"
 viewBox="0.00 0.00 596.00 476.00" xmlns="http://www.w3.org/2000/svg" xmlns:xlink="http://www.w3.org/1999/xlink">
<g id="graph0" class="graph" transform="scale(1 1) rotate(0) translate(36 440)">
<title>context_ontology</title>
<polygon fill="white" stroke="none" points="-36,36 -36,-440 559.77,-440 559.77,36 -36,36"/>
<text xml:space="preserve" text-anchor="start" x="152.39" y="-387.7" font-family="Helvetica,sans-Serif" font-weight="bold" font-size="14.00">Ontologia de Contexto de Usuario</text>
<text xml:space="preserve" text-anchor="start" x="138.51" y="-373.7" font-family="Helvetica,sans-Serif" font-style="italic" font-size="14.00">context&#45;ontology v3.0 &#45; Interaction&#45;Driven</text>
<!-- ecommendation_ontologies_2025_context_ontology_SocialContext_e631385c -->
<g id="node1" class="node">
<title>ecommendation_ontologies_2025_context_ontology_SocialContext_e631385c</title>
<polygon fill="#d97706" stroke="black" points="0,-12.5 0,-76.5 114.25,-76.5 114.25,-12.5 0,-12.5"/>
<text xml:space="preserve" text-anchor="middle" x="57.12" y="-63" font-family="Helvetica,sans-Serif" font-size="10.00" fill="#ffffff">SocialContext</text>
<polyline fill="none" stroke="black" points="0,-56.5 114.25,-56.5"/>
<text xml:space="preserve" text-anchor="start" x="8" y="-43" font-family="Helvetica,sans-Serif" font-size="10.00" fill="#ffffff">companionType: string</text>
<text xml:space="preserve" text-anchor="start" x="8" y="-31" font-family="Helvetica,sans-Serif" font-size="10.00" fill="#ffffff">hasChildren: boolean</text>
<text xml:space="preserve" text-anchor="start" x="8" y="-19" font-family="Helvetica,sans-Serif" font-size="10.00" fill="#ffffff">groupSize: integer</text>
</g>
<!-- ommendation_ontologies_2025_context_ontology_ContextSnapshot_9ae513ec -->
<g id="node2" class="node">
<title>ommendation_ontologies_2025_context_ontology_ContextSnapshot_9ae513ec</title>
<polygon fill="#d97706" stroke="black" points="167.38,-158 167.38,-246 310.88,-246 310.88,-158 167.38,-158"/>
<text xml:space="preserve" text-anchor="middle" x="239.12" y="-232.5" font-family="Helvetica,sans-Serif" font-size="10.00" fill="#ffffff">ContextSnapshot</text>
<polyline fill="none" stroke="black" points="167.38,-226 310.88,-226"/>
<text xml:space="preserve" text-anchor="start" x="175.38" y="-212.5" font-family="Helvetica,sans-Serif" font-size="10.00" fill="#ffffff">snapshotID: string</text>
<text xml:space="preserve" text-anchor="start" x="175.38" y="-200.5" font-family="Helvetica,sans-Serif" font-size="10.00" fill="#ffffff">requestTimestamp: dateTime</text>
<text xml:space="preserve" text-anchor="start" x="175.38" y="-188.5" font-family="Helvetica,sans-Serif" font-size="10.00" fill="#ffffff">userIntent: string</text>
<text xml:space="preserve" text-anchor="start" x="175.38" y="-176.5" font-family="Helvetica,sans-Serif" font-size="10.00" fill="#ffffff">dayOfWeek: string</text>
<text xml:space="preserve" text-anchor="start" x="175.38" y="-164.5" font-family="Helvetica,sans-Serif" font-size="10.00" fill="#ffffff">hourOfDay: integer</text>
</g>
<!-- ommendation_ontologies_2025_context_ontology_ContextSnapshot_9ae513ec&#45;&gt;ecommendation_ontologies_2025_context_ontology_SocialContext_e631385c -->
<g id="edge2" class="edge">
<title>ommendation_ontologies_2025_context_ontology_ContextSnapshot_9ae513ec&#45;&gt;ecommendation_ontologies_2025_context_ontology_SocialContext_e631385c</title>
<path fill="none" stroke="#d97706" stroke-width="2" d="M167.2,-176.98C141.42,-165.54 113.78,-149.64 93.62,-128.5 82.61,-116.95 74.6,-101.53 68.93,-87.11"/>
<polygon fill="#d97706" stroke="#d97706" stroke-width="2" points="66.05,-79.16 73.69,-87.02 67.39,-81.4 69.93,-88.39 69.46,-88.56 68.99,-88.73 66.45,-81.74 65.23,-90.09 66.05,-79.16"/>
<text xml:space="preserve" text-anchor="middle" x="160.38" y="-119.95" font-family="Helvetica,sans-Serif" font-size="9.00" fill="#1f2937">withCompanion / isCompanionIn</text>
</g>
<!-- mmendation_ontologies_2025_context_ontology_EmotionalContext_e1da0273 -->
<g id="node4" class="node">
<title>mmendation_ontologies_2025_context_ontology_EmotionalContext_e1da0273</title>
<polygon fill="#d97706" stroke="black" points="173.38,-6.5 173.38,-82.5 304.88,-82.5 304.88,-6.5 173.38,-6.5"/>
<text xml:space="preserve" text-anchor="middle" x="239.12" y="-69" font-family="Helvetica,sans-Serif" font-size="10.00" fill="#ffffff">EmotionalContext</text>
<polyline fill="none" stroke="black" points="173.38,-62.5 304.88,-62.5"/>
<text xml:space="preserve" text-anchor="start" x="181.38" y="-49" font-family="Helvetica,sans-Serif" font-size="10.00" fill="#ffffff">moodDescription: string</text>
<text xml:space="preserve" text-anchor="start" x="181.38" y="-37" font-family="Helvetica,sans-Serif" font-size="10.00" fill="#ffffff">emotionalNeed: string</text>
<text xml:space="preserve" text-anchor="start" x="181.38" y="-25" font-family="Helvetica,sans-Serif" font-size="10.00" fill="#ffffff">moodIntensity: decimal</text>
<text xml:space="preserve" text-anchor="start" x="181.38" y="-13" font-family="Helvetica,sans-Serif" font-size="10.00" fill="#ffffff">desiredEnergyLevel: string</text>
</g>
<!-- ommendation_ontologies_2025_context_ontology_ContextSnapshot_9ae513ec&#45;&gt;mmendation_ontologies_2025_context_ontology_EmotionalContext_e1da0273 -->
<g id="edge3" class="edge">
<title>ommendation_ontologies_2025_context_ontology_ContextSnapshot_9ae513ec&#45;&gt;mmendation_ontologies_2025_context_ontology_EmotionalContext_e1da0273</title>
<path fill="none" stroke="#d97706" stroke-width="2" d="M237.88,-157.92C237.64,-145.08 237.49,-130.97 237.62,-118 237.71,-110.21 237.83,-101.96 237.98,-93.91"/>
<polygon fill="#d97706" stroke="#d97706" stroke-width="2" points="238.16,-85.19 242.46,-95.28 238.61,-87.76 238.46,-95.2 237.96,-95.19 237.46,-95.18 237.61,-87.74 233.46,-95.1 238.16,-85.19"/>
<text xml:space="preserve" text-anchor="middle" x="301.38" y="-119.95" font-family="Helvetica,sans-Serif" font-size="9.00" fill="#1f2937">feelsMood / isMoodOfSnapshot</text>
</g>
<!-- endation_ontologies_2025_context_ontology_RequirementContext_cd95495d -->
<g id="node5" class="node">
<title>endation_ontologies_2025_context_ontology_RequirementContext_cd95495d</title>
<polygon fill="#d97706" stroke="black" points="347.5,-0.5 347.5,-88.5 488.75,-88.5 488.75,-0.5 347.5,-0.5"/>
<text xml:space="preserve" text-anchor="middle" x="418.12" y="-75" font-family="Helvetica,sans-Serif" font-size="10.00" fill="#ffffff">RequirementContext</text>
<polyline fill="none" stroke="black" points="347.5,-68.5 488.75,-68.5"/>
<text xml:space="preserve" text-anchor="start" x="355.5" y="-55" font-family="Helvetica,sans-Serif" font-size="10.00" fill="#ffffff">availableTime: integer</text>
<text xml:space="preserve" text-anchor="start" x="355.5" y="-43" font-family="Helvetica,sans-Serif" font-size="10.00" fill="#ffffff">contentRestrictions: string</text>
<text xml:space="preserve" text-anchor="start" x="355.5" y="-31" font-family="Helvetica,sans-Serif" font-size="10.00" fill="#ffffff">preferredLanguage: language</text>
<text xml:space="preserve" text-anchor="start" x="355.5" y="-19" font-family="Helvetica,sans-Serif" font-size="10.00" fill="#ffffff">excludedGenre: string</text>
<text xml:space="preserve" text-anchor="start" x="355.5" y="-7" font-family="Helvetica,sans-Serif" font-size="10.00" fill="#ffffff">negativeConstraint: string</text>
</g>
<!-- ommendation_ontologies_2025_context_ontology_ContextSnapshot_9ae513ec&#45;&gt;endation_ontologies_2025_context_ontology_RequirementContext_cd95495d -->
<g id="edge4" class="edge">
<title>ommendation_ontologies_2025_context_ontology_ContextSnapshot_9ae513ec&#45;&gt;endation_ontologies_2025_context_ontology_RequirementContext_cd95495d</title>
<path fill="none" stroke="#d97706" stroke-width="2" d="M311.16,-170.67C332.14,-159.51 354.01,-145.4 371.12,-128.5 379.97,-119.77 387.66,-109.03 394.12,-98.21"/>
<polygon fill="#d97706" stroke="#d97706" stroke-width="2" points="398.29,-90.84 397.28,-101.76 397.46,-93.32 393.8,-99.8 393.37,-99.55 392.93,-99.3 396.59,-92.83 389.45,-97.34 398.29,-90.84"/>
<text xml:space="preserve" text-anchor="middle" x="451.77" y="-119.95" font-family="Helvetica,sans-Serif" font-size="9.00" fill="#1f2937">hasRequirement / isRequirementOf</text>
</g>
<!-- rg_movierecommendation_ontologies_2025_context_ontology_User_4cc8fd3e -->
<g id="node3" class="node">
<title>rg_movierecommendation_ontologies_2025_context_ontology_User_4cc8fd3e</title>
<polygon fill="#d97706" stroke="black" points="193.62,-315.5 193.62,-367.5 284.62,-367.5 284.62,-315.5 193.62,-315.5"/>
<text xml:space="preserve" text-anchor="middle" x="239.12" y="-354" font-family="Helvetica,sans-Serif" font-size="10.00" fill="#ffffff">User</text>
<polyline fill="none" stroke="black" points="193.62,-347.5 284.62,-347.5"/>
<text xml:space="preserve" text-anchor="start" x="201.62" y="-334" font-family="Helvetica,sans-Serif" font-size="10.00" fill="#ffffff">userID: string</text>
<text xml:space="preserve" text-anchor="start" x="201.62" y="-322" font-family="Helvetica,sans-Serif" font-size="10.00" fill="#ffffff">userName: string</text>
</g>
<!-- rg_movierecommendation_ontologies_2025_context_ontology_User_4cc8fd3e&#45;&gt;ommendation_ontologies_2025_context_ontology_ContextSnapshot_9ae513ec -->
<g id="edge1" class="edge">
<title>rg_movierecommendation_ontologies_2025_context_ontology_User_4cc8fd3e&#45;&gt;ommendation_ontologies_2025_context_ontology_ContextSnapshot_9ae513ec</title>
<path fill="none" stroke="#d97706" stroke-width="2" d="M239.12,-315.28C239.12,-299.13 239.12,-277.54 239.12,-257.61"/>
<polygon fill="#d97706" stroke="#d97706" stroke-width="2" points="239.13,-248.87 243.63,-258.87 239.63,-251.44 239.63,-258.87 239.13,-258.87 238.63,-258.87 238.63,-251.44 234.63,-258.87 239.13,-248.87"/>
<text xml:space="preserve" text-anchor="middle" x="314.5" y="-277.45" font-family="Helvetica,sans-Serif" font-size="9.00" fill="#1f2937">hasCurrentContext / isContextOfUser</text>
</g>
</g>
</svg>
