<?xml version="1.0" encoding="UTF-8" standalone="no"?>
<!DOCTYPE svg PUBLIC "-//W3C//DTD SVG 1.1//EN"
 "http://www.w3.org/Graphics/SVG/1.1/DTD/svg11.dtd">
<!-- Generated by graphviz version 14.1.2 (20260124.0452)
 -->
<!-- Title: graphrag_flow Pages: 1 -->
<svg width="448pt" height="1083pt"
 viewBox="0.00 0.00 448.00 1083.00" xmlns="http://www.w3.org/2000/svg" xmlns:xlink="http://www.w3.org/1999/xlink">
<g id="graph0" class="graph" transform="scale(1 1) rotate(0) translate(36 1046.5)">
<title>graphrag_flow</title>
<polygon fill="white" stroke="none" points="-36,36 -36,-1046.5 412,-1046.5 412,36 -36,36"/>
<text xml:space="preserve" text-anchor="start" x="95" y="-994.2" font-family="Helvetica,sans-Serif" font-weight="bold" font-size="14.00">Flujo del Pipeline GraphRAG</text>
<text xml:space="preserve" text-anchor="start" x="8" y="-980.2" font-family="Helvetica,sans-Serif" font-style="italic" font-size="14.00">Desde lenguaje natural hasta recomendacion personalizada</text>
<!-- input -->
<g id="node1" class="node">
<title>input</title>
<path fill="#e5e7eb" stroke="black" stroke-width="1.5" d="M169.62,-974.5C169.62,-974.5 77.12,-974.5 77.12,-974.5 71.12,-974.5 65.12,-968.5 65.12,-962.5 65.12,-962.5 65.12,-942.5 65.12,-942.5 65.12,-936.5 71.12,-930.5 77.12,-930.5 77.12,-930.5 169.62,-930.5 169.62,-930.5 175.62,-930.5 181.62,-936.5 181.62,-942.5 181.62,-942.5 181.62,-962.5 181.62,-962.5 181.62,-968.5 175.62,-974.5 169.62,-974.5"/>
<text xml:space="preserve" text-anchor="middle" x="123.38" y="-961" font-family="Helvetica,sans-Serif" font-size="10.00" fill="#1f2937">Usuario</text>
<text xml:space="preserve" text-anchor="middle" x="123.38" y="-949" font-family="Helvetica,sans-Serif" font-size="10.00" fill="#1f2937">&quot;Quiero algo ligero</text>
<text xml:space="preserve" text-anchor="middle" x="123.38" y="-937" font-family="Helvetica,sans-Serif" font-size="10.00" fill="#1f2937">para ver con mi pareja&quot;</text>
</g>
<!-- extract -->
<g id="node2" class="node">
<title>extract</title>
<path fill="#dbeafe" stroke="black" stroke-width="1.5" d="M155,-870C155,-870 91.75,-870 91.75,-870 85.75,-870 79.75,-864 79.75,-858 79.75,-858 79.75,-846 79.75,-846 79.75,-840 85.75,-834 91.75,-834 91.75,-834 155,-834 155,-834 161,-834 167,-840 167,-846 167,-846 167,-858 167,-858 167,-864 161,-870 155,-870"/>
<text xml:space="preserve" text-anchor="middle" x="123.38" y="-854.5" font-family="Helvetica,sans-Serif" font-size="10.00" fill="#1e40af">LLM: Extraccion</text>
<text xml:space="preserve" text-anchor="middle" x="123.38" y="-842.5" font-family="Helvetica,sans-Serif" font-size="10.00" fill="#1e40af">de Contexto</text>
</g>
<!-- input&#45;&gt;extract -->
<g id="edge1" class="edge">
<title>input&#45;&gt;extract</title>
<path fill="none" stroke="#4b5563" d="M123.38,-930.13C123.38,-916.11 123.38,-897.6 123.38,-882.22"/>
<polygon fill="#4b5563" stroke="#4b5563" points="126.88,-882.22 123.38,-872.22 119.88,-882.22 126.88,-882.22"/>
<text xml:space="preserve" text-anchor="middle" x="156.75" y="-896.95" font-family="Helvetica,sans-Serif" font-size="9.00" fill="#6b7280">lenguaje natural</text>
</g>
<!-- context_rdf -->
<g id="node3" class="node">
<title>context_rdf</title>
<path fill="#fef3c7" stroke="black" stroke-width="1.5" d="M167.38,-769.5C167.38,-771.71 147.65,-773.5 123.38,-773.5 99.1,-773.5 79.38,-771.71 79.38,-769.5 79.38,-769.5 79.38,-733.5 79.38,-733.5 79.38,-731.29 99.1,-729.5 123.38,-729.5 147.65,-729.5 167.38,-731.29 167.38,-733.5 167.38,-733.5 167.38,-769.5 167.38,-769.5"/>
<path fill="none" stroke="black" stroke-width="1.5" d="M167.38,-769.5C167.38,-767.29 147.65,-765.5 123.38,-765.5 99.1,-765.5 79.38,-767.29 79.38,-769.5"/>
<text xml:space="preserve" text-anchor="middle" x="123.38" y="-754" font-family="Helvetica,sans-Serif" font-size="10.00" fill="#92400e">context&#45;ontology</text>
<text xml:space="preserve" text-anchor="middle" x="123.38" y="-742" font-family="Helvetica,sans-Serif" font-size="10.00" fill="#92400e">(Tripletas RDF)</text>
</g>
<!-- extract&#45;&gt;context_rdf -->
<g id="edge2" class="edge">
<title>extract&#45;&gt;context_rdf</title>
<path fill="none" stroke="#4b5563" d="M123.38,-833.39C123.38,-820.03 123.38,-801.29 123.38,-785.21"/>
<polygon fill="#4b5563" stroke="#4b5563" points="126.88,-785.6 123.38,-775.6 119.88,-785.6 126.88,-785.6"/>
<text xml:space="preserve" text-anchor="middle" x="154.5" y="-800.45" font-family="Helvetica,sans-Serif" font-size="9.00" fill="#6b7280">instancias RDF</text>
</g>
<!-- sparql_gen -->
<g id="node4" class="node">
<title>sparql_gen</title>
<path fill="#dbeafe" stroke="black" stroke-width="1.5" d="M166.25,-668C166.25,-668 80.5,-668 80.5,-668 74.5,-668 68.5,-662 68.5,-656 68.5,-656 68.5,-644 68.5,-644 68.5,-638 74.5,-632 80.5,-632 80.5,-632 166.25,-632 166.25,-632 172.25,-632 178.25,-638 178.25,-644 178.25,-644 178.25,-656 178.25,-656 178.25,-662 172.25,-668 166.25,-668"/>
<text xml:space="preserve" text-anchor="middle" x="123.38" y="-652.5" font-family="Helvetica,sans-Serif" font-size="10.00" fill="#1e40af">Generacion Dinamica</text>
<text xml:space="preserve" text-anchor="middle" x="123.38" y="-640.5" font-family="Helvetica,sans-Serif" font-size="10.00" fill="#1e40af">de SPARQL</text>
</g>
<!-- context_rdf&#45;&gt;sparql_gen -->
<g id="edge3" class="edge">
<title>context_rdf&#45;&gt;sparql_gen</title>
<path fill="none" stroke="#4b5563" d="M123.38,-728.91C123.38,-714.52 123.38,-695.44 123.38,-679.76"/>
<polygon fill="#4b5563" stroke="#4b5563" points="126.88,-680.08 123.38,-670.08 119.88,-680.08 126.88,-680.08"/>
<text xml:space="preserve" text-anchor="middle" x="167.25" y="-695.95" font-family="Helvetica,sans-Serif" font-size="9.00" fill="#6b7280">contexto estructurado</text>
</g>
<!-- fuseki -->
<g id="node5" class="node">
<title>fuseki</title>
<path fill="#f3f4f6" stroke="black" stroke-width="1.5" d="M233,-566.5C233,-568.71 214.79,-570.5 192.38,-570.5 169.96,-570.5 151.75,-568.71 151.75,-566.5 151.75,-566.5 151.75,-530.5 151.75,-530.5 151.75,-528.29 169.96,-526.5 192.38,-526.5 214.79,-526.5 233,-528.29 233,-530.5 233,-530.5 233,-566.5 233,-566.5"/>
<path fill="none" stroke="black" stroke-width="1.5" d="M233,-566.5C233,-564.29 214.79,-562.5 192.38,-562.5 169.96,-562.5 151.75,-564.29 151.75,-566.5"/>
<text xml:space="preserve" text-anchor="middle" x="192.38" y="-551" font-family="Helvetica,sans-Serif" font-size="10.00" fill="#374151">Apache Fuseki</text>
<text xml:space="preserve" text-anchor="middle" x="192.38" y="-539" font-family="Helvetica,sans-Serif" font-size="10.00" fill="#374151">(Triplestore)</text>
</g>
<!-- sparql_gen&#45;&gt;fuseki -->
<g id="edge4" class="edge">
<title>sparql_gen&#45;&gt;fuseki</title>
<path fill="none" stroke="#4b5563" d="M135.39,-631.67C145.14,-617.61 159.13,-597.44 170.81,-580.6"/>
<polygon fill="#4b5563" stroke="#4b5563" points="173.68,-582.6 176.5,-572.39 167.93,-578.61 173.68,-582.6"/>
<text xml:space="preserve" text-anchor="middle" x="193.32" y="-597.45" font-family="Helvetica,sans-Serif" font-size="9.00" fill="#6b7280">SELECT + filtros</text>
</g>
<!-- candidates -->
<g id="node6" class="node">
<title>candidates</title>
<path fill="#d1fae5" stroke="black" stroke-width="1.5" d="M213.12,-466C213.12,-466 171.62,-466 171.62,-466 165.62,-466 159.62,-460 159.62,-454 159.62,-454 159.62,-442 159.62,-442 159.62,-436 165.62,-430 171.62,-430 171.62,-430 213.12,-430 213.12,-430 219.12,-430 225.12,-436 225.12,-442 225.12,-442 225.12,-454 225.12,-454 225.12,-460 219.12,-466 213.12,-466"/>
<text xml:space="preserve" text-anchor="middle" x="192.38" y="-450.5" font-family="Helvetica,sans-Serif" font-size="10.00" fill="#065f46">Peliculas</text>
<text xml:space="preserve" text-anchor="middle" x="192.38" y="-438.5" font-family="Helvetica,sans-Serif" font-size="10.00" fill="#065f46">Candidatas</text>
</g>
<!-- fuseki&#45;&gt;candidates -->
<g id="edge5" class="edge">
<title>fuseki&#45;&gt;candidates</title>
<path fill="none" stroke="#4b5563" d="M192.38,-526.13C192.38,-512.11 192.38,-493.6 192.38,-478.22"/>
<polygon fill="#4b5563" stroke="#4b5563" points="195.88,-478.22 192.38,-468.22 188.88,-478.22 195.88,-478.22"/>
<text xml:space="preserve" text-anchor="middle" x="213.75" y="-492.95" font-family="Helvetica,sans-Serif" font-size="9.00" fill="#6b7280">resultados</text>
</g>
<!-- swrl -->
<g id="node7" class="node">
<title>swrl</title>
<path fill="#fee2e2" stroke="black" stroke-width="1.5" d="M180.86,-366.12C180.86,-366.12 94.89,-340.88 94.89,-340.88 89.13,-339.19 89.13,-335.81 94.89,-334.12 94.89,-334.12 180.86,-308.88 180.86,-308.88 186.62,-307.19 198.13,-307.19 203.89,-308.88 203.89,-308.88 289.86,-334.12 289.86,-334.12 295.62,-335.81 295.62,-339.19 289.86,-340.88 289.86,-340.88 203.89,-366.12 203.89,-366.12 198.13,-367.81 186.62,-367.81 180.86,-366.12"/>
<text xml:space="preserve" text-anchor="middle" x="192.38" y="-340" font-family="Helvetica,sans-Serif" font-size="10.00" fill="#991b1b">Filtrado SWRL</text>
<text xml:space="preserve" text-anchor="middle" x="192.38" y="-328" font-family="Helvetica,sans-Serif" font-size="10.00" fill="#991b1b">(Restricciones duras)</text>
</g>
<!-- candidates&#45;&gt;swrl -->
<g id="edge6" class="edge">
<title>candidates&#45;&gt;swrl</title>
<path fill="none" stroke="#4b5563" d="M192.38,-429.57C192.38,-416.52 192.38,-398.1 192.38,-381.24"/>
<polygon fill="#4b5563" stroke="#4b5563" points="195.88,-381.41 192.38,-371.41 188.88,-381.41 195.88,-381.41"/>
<text xml:space="preserve" text-anchor="middle" x="213.38" y="-396.45" font-family="Helvetica,sans-Serif" font-size="9.00" fill="#6b7280">validacion</text>
</g>
<!-- scoring -->
<g id="node8" class="node">
<title>scoring</title>
<path fill="#dbeafe" stroke="black" stroke-width="1.5" d="M225.12,-245C225.12,-245 159.62,-245 159.62,-245 153.62,-245 147.62,-239 147.62,-233 147.62,-233 147.62,-213 147.62,-213 147.62,-207 153.62,-201 159.62,-201 159.62,-201 225.12,-201 225.12,-201 231.12,-201 237.12,-207 237.12,-213 237.12,-213 237.12,-233 237.12,-233 237.12,-239 231.12,-245 225.12,-245"/>
<text xml:space="preserve" text-anchor="middle" x="192.38" y="-231.5" font-family="Helvetica,sans-Serif" font-size="10.00" fill="#1e40af">LLM: Scoring</text>
<text xml:space="preserve" text-anchor="middle" x="192.38" y="-219.5" font-family="Helvetica,sans-Serif" font-size="10.00" fill="#1e40af">por Dimensiones</text>
<text xml:space="preserve" text-anchor="middle" x="192.38" y="-207.5" font-family="Helvetica,sans-Serif" font-size="10.00" fill="#1e40af">(0.0 &#45; 1.0)</text>
</g>
<!-- swrl&#45;&gt;scoring -->
<g id="edge7" class="edge">
<title>swrl&#45;&gt;scoring</title>
<path fill="none" stroke="#4b5563" d="M192.38,-304.86C192.38,-289.89 192.38,-272.02 192.38,-256.89"/>
<polygon fill="#4b5563" stroke="#4b5563" points="195.88,-256.96 192.38,-246.96 188.88,-256.96 195.88,-256.96"/>
<text xml:space="preserve" text-anchor="middle" x="232.12" y="-271.95" font-family="Helvetica,sans-Serif" font-size="9.00" fill="#6b7280">candidatas filtradas</text>
</g>
<!-- ranking -->
<g id="node9" class="node">
<title>ranking</title>
<path fill="#d1fae5" stroke="black" stroke-width="1.5" d="M220.62,-140.5C220.62,-140.5 164.12,-140.5 164.12,-140.5 158.12,-140.5 152.12,-134.5 152.12,-128.5 152.12,-128.5 152.12,-116.5 152.12,-116.5 152.12,-110.5 158.12,-104.5 164.12,-104.5 164.12,-104.5 220.62,-104.5 220.62,-104.5 226.62,-104.5 232.62,-110.5 232.62,-116.5 232.62,-116.5 232.62,-128.5 232.62,-128.5 232.62,-134.5 226.62,-140.5 220.62,-140.5"/>
<text xml:space="preserve" text-anchor="middle" x="192.38" y="-125" font-family="Helvetica,sans-Serif" font-size="10.00" fill="#065f46">Ranking</text>
<text xml:space="preserve" text-anchor="middle" x="192.38" y="-113" font-family="Helvetica,sans-Serif" font-size="10.00" fill="#065f46">top&#45;K peliculas</text>
</g>
<!-- scoring&#45;&gt;ranking -->
<g id="edge8" class="edge">
<title>scoring&#45;&gt;ranking</title>
<path fill="none" stroke="#4b5563" d="M192.38,-200.63C192.38,-186.61 192.38,-168.1 192.38,-152.72"/>
<polygon fill="#4b5563" stroke="#4b5563" points="195.88,-152.72 192.38,-142.72 188.88,-152.72 195.88,-152.72"/>
<text xml:space="preserve" text-anchor="middle" x="229.12" y="-167.45" font-family="Helvetica,sans-Serif" font-size="9.00" fill="#6b7280">scores calculados</text>
</g>
<!-- response -->
<g id="node10" class="node">
<title>response</title>
<path fill="#e5e7eb" stroke="black" stroke-width="1.5" d="M223.62,-44C223.62,-44 161.12,-44 161.12,-44 155.12,-44 149.12,-38 149.12,-32 149.12,-32 149.12,-12 149.12,-12 149.12,-6 155.12,0 161.12,0 161.12,0 223.62,0 223.62,0 229.62,0 235.62,-6 235.62,-12 235.62,-12 235.62,-32 235.62,-32 235.62,-38 229.62,-44 223.62,-44"/>
<text xml:space="preserve" text-anchor="middle" x="192.38" y="-30.5" font-family="Helvetica,sans-Serif" font-size="10.00" fill="#1f2937">Respuesta</text>
<text xml:space="preserve" text-anchor="middle" x="192.38" y="-18.5" font-family="Helvetica,sans-Serif" font-size="10.00" fill="#1f2937">Contextualizada</text>
<text xml:space="preserve" text-anchor="middle" x="192.38" y="-6.5" font-family="Helvetica,sans-Serif" font-size="10.00" fill="#1f2937">al Usuario</text>
</g>
<!-- ranking&#45;&gt;response -->
<g id="edge9" class="edge">
<title>ranking&#45;&gt;response</title>
<path fill="none" stroke="#4b5563" d="M192.38,-103.89C192.38,-90.53 192.38,-71.79 192.38,-55.71"/>
<polygon fill="#4b5563" stroke="#4b5563" points="195.88,-56.1 192.38,-46.1 188.88,-56.1 195.88,-56.1"/>
<text xml:space="preserve" text-anchor="middle" x="231.38" y="-70.95" font-family="Helvetica,sans-Serif" font-size="9.00" fill="#6b7280">top&#45;K + explicacion</text>
</g>
<!-- onto_note -->
<g id="node11" class="node">
<title>onto_note</title>
<polygon fill="#fff7ed" stroke="#d97706" points="304.88,-669 213.88,-669 213.88,-631 310.88,-631 310.88,-663 304.88,-669"/>
<polyline fill="none" stroke="#d97706" points="304.88,-669 304.88,-663"/>
<polyline fill="none" stroke="#d97706" points="310.88,-663 304.88,-663"/>
<text xml:space="preserve" text-anchor="start" x="229.38" y="-656.5" font-family="Helvetica,sans-Serif" font-style="italic" font-size="10.00" fill="#92400e">movie&#45;ontology</text>
<text xml:space="preserve" text-anchor="start" x="224.88" y="-646.5" font-family="Helvetica,sans-Serif" font-style="italic" font-size="10.00" fill="#92400e">+ bridge&#45;ontology</text>
<text xml:space="preserve" text-anchor="start" x="221.88" y="-636.5" font-family="Helvetica,sans-Serif" font-style="italic" font-size="10.00" fill="#92400e">+ context&#45;ontology</text>
</g>
<!-- onto_note&#45;&gt;fuseki -->
<g id="edge10" class="edge">
<title>onto_note&#45;&gt;fuseki</title>
<path fill="none" stroke="#d97706" stroke-dasharray="1,5" d="M254.82,-630.94C249.96,-620.21 243.12,-606.59 235.38,-595.5 229.37,-586.9 221.82,-578.28 214.73,-570.86"/>
</g>
</g>
</svg>
