<?xml version="1.0" encoding="UTF-8" standalone="no"?>
<!DOCTYPE svg PUBLIC "-//W3C//DTD SVG 1.1//EN"
 "http://www.w3.org/Graphics/SVG/1.1/DTD/svg11.dtd">
<!-- Generated by graphviz version 14.1.2 (20260124.0452)
 -->
<!-- Title: integration Pages: 1 -->
<svg width="1327pt" height="1325pt"
 viewBox="0.00 0.00 1327.00 1325.00" xmlns="http://www.w3.org/2000/svg" xmlns:xlink="http://www.w3.org/1999/xlink">
<g id="graph0" class="graph" transform="scale(1 1) rotate(0) translate(72 1253.36)">
<title>integration</title>
<polygon fill="white" stroke="none" points="-72,72 -72,-1253.36 1255.35,-1253.36 1255.35,72 -72,72"/>
<text xml:space="preserve" text-anchor="start" x="422.17" y="-1165.06" font-family="Helvetica,sans-Serif" font-weight="bold" font-size="14.00">Arquitectura Modular de Ontologias para GraphRAG</text>
<text xml:space="preserve" text-anchor="start" x="405.3" y="-1151.06" font-family="Helvetica,sans-Serif" font-style="italic" font-size="14.00">Sistema de Recomendacion de Peliculas Basado en Contexto</text>
<g id="clust1" class="cluster">
<title>cluster_movie</title>
<path fill="#dbeafe" stroke="#2563eb" stroke-width="2" d="M495.39,-591.08C495.39,-591.08 1171.35,-591.08 1171.35,-591.08 1177.35,-591.08 1183.35,-597.08 1183.35,-603.08 1183.35,-603.08 1183.35,-1133.36 1183.35,-1133.36 1183.35,-1139.36 1177.35,-1145.36 1171.35,-1145.36 1171.35,-1145.36 495.39,-1145.36 495.39,-1145.36 489.39,-1145.36 483.39,-1139.36 483.39,-1133.36 483.39,-1133.36 483.39,-603.08 483.39,-603.08 483.39,-597.08 489.39,-591.08 495.39,-591.08"/>
<text xml:space="preserve" text-anchor="start" x="767.74" y="-1129.06" font-family="Helvetica,sans-Serif" font-weight="bold" font-size="14.00">movie&#45;ontology v1.0</text>
<text xml:space="preserve" text-anchor="start" x="756.87" y="-1115.06" font-family="Helvetica,sans-Serif" font-style="italic" font-size="14.00">Dominio Cinematografico</text>
</g>
<g id="clust2" class="cluster">
<title>cluster_context</title>
<path fill="#fef3c7" stroke="#d97706" stroke-width="2" d="M12,0C12,0 768.67,0 768.67,0 774.67,0 780.67,-6 780.67,-12 780.67,-12 780.67,-484.67 780.67,-484.67 780.67,-490.67 774.67,-496.67 768.67,-496.67 768.67,-496.67 12,-496.67 12,-496.67 6,-496.67 0,-490.67 0,-484.67 0,-484.67 0,-12 0,-12 0,-6 6,0 12,0"/>
<text xml:space="preserve" text-anchor="start" x="320.58" y="-480.37" font-family="Helvetica,sans-Serif" font-weight="bold" font-size="14.00">context&#45;ontology v3.0</text>
<text xml:space="preserve" text-anchor="start" x="319.08" y="-466.37" font-family="Helvetica,sans-Serif" font-style="italic" font-size="14.00">Contexto de Interaccion</text>
</g>
<!-- mo_Movie -->
<g id="node1" class="node">
<title>mo_Movie</title>
<ellipse fill="#2563eb" stroke="black" cx="773.83" cy="-762.17" rx="43.2" ry="18"/>
<text xml:space="preserve" text-anchor="middle" x="773.83" y="-758.87" font-family="Helvetica,sans-Serif" font-size="9.00" fill="#ffffff">Movie</text>
</g>
<!-- mo_Person -->
<g id="node2" class="node">
<title>mo_Person</title>
<ellipse fill="#2563eb" stroke="black" cx="526.59" cy="-1086.9" rx="43.2" ry="18"/>
<text xml:space="preserve" text-anchor="middle" x="526.59" y="-1083.6" font-family="Helvetica,sans-Serif" font-size="9.00" fill="#ffffff">Person</text>
</g>
<!-- mo_Movie&#45;&gt;mo_Person -->
<g id="edge1" class="edge">
<title>mo_Movie&#45;&gt;mo_Person</title>
<path fill="none" stroke="#6b7280" d="M760.54,-779.63C719.7,-833.26 595.9,-995.87 546.88,-1060.24"/>
<polygon fill="#6b7280" stroke="#6b7280" points="544.14,-1058.07 540.86,-1068.15 549.71,-1062.31 544.14,-1058.07"/>
<text xml:space="preserve" text-anchor="middle" x="632.35" y="-934.2" font-family="Helvetica,sans-Serif" font-size="7.00" fill="#6b7280">hasDirector</text>
<text xml:space="preserve" text-anchor="middle" x="632.35" y="-925.95" font-family="Helvetica,sans-Serif" font-size="7.00" fill="#6b7280">hasActor</text>
</g>
<!-- mo_Genre -->
<g id="node3" class="node">
<title>mo_Genre</title>
<ellipse fill="#2563eb" stroke="black" cx="1140.15" cy="-609.08" rx="43.2" ry="18"/>
<text xml:space="preserve" text-anchor="middle" x="1140.15" y="-605.78" font-family="Helvetica,sans-Serif" font-size="9.00" fill="#ffffff">Genre</text>
</g>
<!-- mo_Movie&#45;&gt;mo_Genre -->
<g id="edge2" class="edge">
<title>mo_Movie&#45;&gt;mo_Genre</title>
<path fill="none" stroke="#6b7280" d="M804.74,-749.25C870.59,-721.73 1024.69,-657.33 1098.84,-626.34"/>
<polygon fill="#6b7280" stroke="#6b7280" points="1099.91,-629.68 1107.79,-622.6 1097.21,-623.23 1099.91,-629.68"/>
<text xml:space="preserve" text-anchor="middle" x="942.22" y="-687.13" font-family="Helvetica,sans-Serif" font-size="7.00" fill="#6b7280">hasGenre</text>
</g>
<!-- mo_Attribute -->
<g id="node4" class="node">
<title>mo_Attribute</title>
<ellipse fill="#2563eb" stroke="black" cx="839.8" cy="-1127.36" rx="43.2" ry="18"/>
<text xml:space="preserve" text-anchor="middle" x="839.8" y="-1124.06" font-family="Helvetica,sans-Serif" font-size="9.00" fill="#ffffff">Attribute</text>
</g>
<!-- mo_Movie&#45;&gt;mo_Attribute -->
<g id="edge3" class="edge">
<title>mo_Movie&#45;&gt;mo_Attribute</title>
<path fill="none" stroke="#6b7280" d="M777.14,-780.53C787.84,-839.72 821.46,-1025.85 834.53,-1098.19"/>
<polygon fill="#6b7280" stroke="#6b7280" points="831.02,-1098.47 836.24,-1107.69 837.91,-1097.22 831.02,-1098.47"/>
<text xml:space="preserve" text-anchor="middle" x="787.69" y="-954.62" font-family="Helvetica,sans-Serif" font-size="7.00" fill="#6b7280">hasKeyword</text>
<text xml:space="preserve" text-anchor="middle" x="787.69" y="-946.37" font-family="Helvetica,sans-Serif" font-size="7.00" fill="#6b7280">hasTone</text>
</g>
<!-- mo_MovieCluster -->
<g id="node5" class="node">
<title>mo_MovieCluster</title>
<ellipse fill="#2563eb" stroke="black" cx="1108.21" cy="-918.41" rx="43.2" ry="18"/>
<text xml:space="preserve" text-anchor="middle" x="1108.21" y="-915.11" font-family="Helvetica,sans-Serif" font-size="9.00" fill="#ffffff">MovieCluster</text>
</g>
<!-- mo_Movie&#45;&gt;mo_MovieCluster -->
<g id="edge4" class="edge">
<title>mo_Movie&#45;&gt;mo_MovieCluster</title>
<path fill="none" stroke="#6b7280" d="M802.92,-775.76C862.95,-803.81 1000.61,-868.13 1068.65,-899.92"/>
<polygon fill="#6b7280" stroke="#6b7280" points="1067.04,-903.03 1077.58,-904.09 1070,-896.69 1067.04,-903.03"/>
<text xml:space="preserve" text-anchor="middle" x="914.06" y="-841.9" font-family="Helvetica,sans-Serif" font-size="7.00" fill="#6b7280">belongsToCluster</text>
</g>
<!-- co_User -->
<g id="node6" class="node">
<title>co_User</title>
<ellipse fill="#d97706" stroke="black" cx="46.8" cy="-18" rx="46.8" ry="18"/>
<text xml:space="preserve" text-anchor="middle" x="46.8" y="-14.7" font-family="Helvetica,sans-Serif" font-size="9.00" fill="#ffffff">User</text>
</g>
<!-- co_ContextSnapshot -->
<g id="node7" class="node">
<title>co_ContextSnapshot</title>
<ellipse fill="#d97706" stroke="black" cx="349.3" cy="-240.45" rx="50.42" ry="18"/>
<text xml:space="preserve" text-anchor="middle" x="349.3" y="-237.15" font-family="Helvetica,sans-Serif" font-size="9.00" fill="#ffffff">ContextSnapshot</text>
</g>
<!-- co_User&#45;&gt;co_ContextSnapshot -->
<g id="edge5" class="edge">
<title>co_User&#45;&gt;co_ContextSnapshot</title>
<path fill="none" stroke="#92400e" d="M68.56,-34C121.28,-72.77 256.06,-171.88 317.69,-217.2"/>
<polygon fill="#92400e" stroke="#92400e" points="315.58,-219.99 325.71,-223.1 319.72,-214.35 315.58,-219.99"/>
<text xml:space="preserve" text-anchor="middle" x="168.04" y="-130.54" font-family="Helvetica,sans-Serif" font-size="7.00" fill="#92400e">hasCurrentContext</text>
</g>
<!-- co_SocialContext -->
<g id="node8" class="node">
<title>co_SocialContext</title>
<ellipse fill="#d97706" stroke="black" cx="733.87" cy="-123.69" rx="46.8" ry="18"/>
<text xml:space="preserve" text-anchor="middle" x="733.87" y="-120.39" font-family="Helvetica,sans-Serif" font-size="9.00" fill="#ffffff">SocialContext</text>
</g>
<!-- co_ContextSnapshot&#45;&gt;co_SocialContext -->
<g id="edge6" class="edge">
<title>co_ContextSnapshot&#45;&gt;co_SocialContext</title>
<path fill="none" stroke="#92400e" d="M388.29,-228.61C459.18,-207.09 608.95,-161.62 685.94,-138.24"/>
<polygon fill="#92400e" stroke="#92400e" points="686.76,-141.65 695.31,-135.4 684.72,-134.96 686.76,-141.65"/>
<text xml:space="preserve" text-anchor="middle" x="518.37" y="-183.43" font-family="Helvetica,sans-Serif" font-size="7.00" fill="#92400e">withCompanion</text>
</g>
<!-- co_EmotionalContext -->
<g id="node9" class="node">
<title>co_EmotionalContext</title>
<ellipse fill="#d97706" stroke="black" cx="160.32" cy="-478.67" rx="51.73" ry="18"/>
<text xml:space="preserve" text-anchor="middle" x="160.32" y="-475.37" font-family="Helvetica,sans-Serif" font-size="9.00" fill="#ffffff">EmotionalContext</text>
</g>
<!-- co_ContextSnapshot&#45;&gt;co_EmotionalContext -->
<g id="edge7" class="edge">
<title>co_ContextSnapshot&#45;&gt;co_EmotionalContext</title>
<path fill="none" stroke="#92400e" d="M335.4,-257.96C302.57,-299.35 220.05,-403.38 181.18,-452.37"/>
<polygon fill="#92400e" stroke="#92400e" points="178.65,-449.93 175.18,-459.94 184.13,-454.28 178.65,-449.93"/>
<text xml:space="preserve" text-anchor="middle" x="238.53" y="-361.35" font-family="Helvetica,sans-Serif" font-size="7.00" fill="#92400e">feelsMood</text>
</g>
<!-- co_RequirementContext -->
<g id="node10" class="node">
<title>co_RequirementContext</title>
<ellipse fill="#d97706" stroke="black" cx="534.94" cy="-22.26" rx="58.72" ry="18"/>
<text xml:space="preserve" text-anchor="middle" x="534.94" y="-18.96" font-family="Helvetica,sans-Serif" font-size="9.00" fill="#ffffff">RequirementContext</text>
</g>
<!-- co_ContextSnapshot&#45;&gt;co_RequirementContext -->
<g id="edge8" class="edge">
<title>co_ContextSnapshot&#45;&gt;co_RequirementContext</title>
<path fill="none" stroke="#92400e" d="M364.18,-222.96C396.62,-184.83 473.88,-94.03 512.36,-48.8"/>
<polygon fill="#92400e" stroke="#92400e" points="514.94,-51.17 518.75,-41.29 509.6,-46.64 514.94,-51.17"/>
<text xml:space="preserve" text-anchor="middle" x="416.45" y="-133.15" font-family="Helvetica,sans-Serif" font-size="7.00" fill="#92400e">hasRequirement</text>
</g>
<!-- bridge_center -->
<g id="node11" class="node">
<title>bridge_center</title>
<path fill="#ecfdf5" stroke="#059669" stroke-width="2" d="M680.18,-456.99C680.18,-456.99 488.18,-456.99 488.18,-456.99 482.18,-456.99 476.18,-450.99 476.18,-444.99 476.18,-444.99 476.18,-379.99 476.18,-379.99 476.18,-373.99 482.18,-367.99 488.18,-367.99 488.18,-367.99 680.18,-367.99 680.18,-367.99 686.18,-367.99 692.18,-373.99 692.18,-379.99 692.18,-379.99 692.18,-444.99 692.18,-444.99 692.18,-450.99 686.18,-456.99 680.18,-456.99"/>
<text xml:space="preserve" text-anchor="start" x="540.68" y="-445.44" font-family="Helvetica,sans-Serif" font-weight="bold" font-size="9.00" fill="#1f2937">bridge&#45;ontology v2.0</text>
<text xml:space="preserve" text-anchor="start" x="539.55" y="-436.44" font-family="Helvetica,sans-Serif" font-style="italic" font-size="9.00" fill="#1f2937">Alineacion Semantica</text>
<text xml:space="preserve" text-anchor="start" x="545.55" y="-418.44" font-family="Helvetica,sans-Serif" font-size="9.00" fill="#1f2937">isRecommendedIn</text>
<text xml:space="preserve" text-anchor="start" x="541.05" y="-409.44" font-family="Helvetica,sans-Serif" font-size="9.00" fill="#1f2937">satisfiesRequirement</text>
<text xml:space="preserve" text-anchor="start" x="551.18" y="-400.44" font-family="Helvetica,sans-Serif" font-size="9.00" fill="#1f2937">alignsWithMood</text>
<text xml:space="preserve" text-anchor="start" x="532.8" y="-391.44" font-family="Helvetica,sans-Serif" font-size="9.00" fill="#1f2937">suitableForSocialContext</text>
<text xml:space="preserve" text-anchor="start" x="546.68" y="-382.44" font-family="Helvetica,sans-Serif" font-size="9.00" fill="#1f2937">compatibilityScore</text>
<text xml:space="preserve" text-anchor="start" x="558.3" y="-373.44" font-family="Helvetica,sans-Serif" font-size="9.00" fill="#1f2937">SWRL Rules</text>
</g>
<!-- bridge_center&#45;&gt;mo_Movie -->
<g id="edge9" class="edge">
<title>bridge_center&#45;&gt;mo_Movie</title>
<path fill="none" stroke="#059669" stroke-width="2.5" d="M608.78,-457.85C648.35,-530.8 725.03,-672.19 758.06,-733.1"/>
<polygon fill="#059669" stroke="#059669" stroke-width="2.5" points="762.79,-741.82 754.07,-735.17 761.2,-740.46 757.36,-733.38 758.02,-733.03 758.68,-732.67 762.52,-739.74 761.98,-730.88 762.79,-741.82"/>
<text xml:space="preserve" text-anchor="middle" x="660.66" y="-613.11" font-family="Helvetica,sans-Serif" font-size="8.00" fill="#059669">conecta con</text>
<text xml:space="preserve" text-anchor="middle" x="660.66" y="-603.36" font-family="Helvetica,sans-Serif" font-size="8.00" fill="#059669">dominio filmico</text>
</g>
<!-- bridge_center&#45;&gt;co_ContextSnapshot -->
<g id="edge10" class="edge">
<title>bridge_center&#45;&gt;co_ContextSnapshot</title>
<path fill="none" stroke="#059669" stroke-width="2.5" d="M522.16,-367.06C477.33,-334.22 418.51,-291.14 382.34,-264.65"/>
<polygon fill="#059669" stroke="#059669" stroke-width="2.5" points="374.34,-258.78 385.06,-261.06 376.36,-259.33 382.85,-264.09 382.4,-264.69 381.96,-265.3 375.47,-260.54 379.75,-268.32 374.34,-258.78"/>
<text xml:space="preserve" text-anchor="middle" x="412.38" y="-324.1" font-family="Helvetica,sans-Serif" font-size="8.00" fill="#059669">conecta con</text>
<text xml:space="preserve" text-anchor="middle" x="412.38" y="-314.35" font-family="Helvetica,sans-Serif" font-size="8.00" fill="#059669">contexto de usuario</text>
</g>
<!-- bridge_center&#45;&gt;co_SocialContext -->
<g id="edge12" class="edge">
<title>bridge_center&#45;&gt;co_SocialContext</title>
<path fill="none" stroke="#059669" stroke-dasharray="5,2" d="M607.73,-367.05C639.03,-306.67 693.37,-201.82 719.3,-151.8"/>
<polygon fill="#059669" stroke="#059669" points="722.33,-153.55 723.83,-143.06 716.12,-150.33 722.33,-153.55"/>
<text xml:space="preserve" text-anchor="middle" x="622.01" y="-256.28" font-family="Helvetica,sans-Serif" font-size="8.00" fill="#059669">suitableForSocialContext</text>
</g>
<!-- bridge_center&#45;&gt;co_EmotionalContext -->
<g id="edge11" class="edge">
<title>bridge_center&#45;&gt;co_EmotionalContext</title>
<path fill="none" stroke="#059669" stroke-dasharray="5,2" d="M475.3,-429.49C393.68,-442.23 285.11,-459.19 219.1,-469.49"/>
<polygon fill="#059669" stroke="#059669" points="218.92,-465.98 209.57,-470.98 220,-472.89 218.92,-465.98"/>
<text xml:space="preserve" text-anchor="middle" x="312.95" y="-452.6" font-family="Helvetica,sans-Serif" font-size="8.00" fill="#059669">alignsWithMood</text>
</g>
<!-- bridge_center&#45;&gt;co_RequirementContext -->
<g id="edge13" class="edge">
<title>bridge_center&#45;&gt;co_RequirementContext</title>
<path fill="none" stroke="#059669" stroke-dasharray="5,2" d="M578.48,-367.35C568.28,-286.53 547.18,-119.28 538.64,-51.62"/>
<polygon fill="#059669" stroke="#059669" points="542.16,-51.54 537.44,-42.05 535.22,-52.41 542.16,-51.54"/>
<text xml:space="preserve" text-anchor="middle" x="520.73" y="-205.99" font-family="Helvetica,sans-Serif" font-size="8.00" fill="#059669">satisfiesRequirement</text>
</g>
<!-- graphrag -->
<g id="node12" class="node">
<title>graphrag</title>
<path fill="#1f2937" stroke="black" stroke-width="2" d="M575.97,-648.1C575.97,-648.1 347.97,-648.1 347.97,-648.1 341.97,-648.1 335.97,-642.1 335.97,-636.1 335.97,-636.1 335.97,-624.1 335.97,-624.1 335.97,-618.1 341.97,-612.1 347.97,-612.1 347.97,-612.1 575.97,-612.1 575.97,-612.1 581.97,-612.1 587.97,-618.1 587.97,-624.1 587.97,-624.1 587.97,-636.1 587.97,-636.1 587.97,-642.1 581.97,-648.1 575.97,-648.1"/>
<text xml:space="preserve" text-anchor="start" x="408.72" y="-631.55" font-family="Helvetica,sans-Serif" font-weight="bold" font-size="9.00" fill="#ffffff">GraphRAG Query Engine</text>
<text xml:space="preserve" text-anchor="start" x="413.97" y="-622.55" font-family="Helvetica,sans-Serif" font-style="italic" font-size="9.00" fill="#ffffff">NestJS + LLM (OpenAI)</text>
</g>
<!-- graphrag&#45;&gt;mo_Movie -->
<g id="edge15" class="edge">
<title>graphrag&#45;&gt;mo_Movie</title>
<path fill="none" stroke="#374151" stroke-dasharray="5,2" d="M506.65,-649.02C567.22,-674.67 674.51,-720.11 733.01,-744.88"/>
<polygon fill="#374151" stroke="#374151" points="731.38,-747.99 741.95,-748.67 734.11,-741.55 731.38,-747.99"/>
<text xml:space="preserve" text-anchor="middle" x="593.5" y="-701.29" font-family="Helvetica,sans-Serif" font-size="8.00" fill="#374151">consulta SPARQL</text>
</g>
<!-- graphrag&#45;&gt;co_ContextSnapshot -->
<g id="edge16" class="edge">
<title>graphrag&#45;&gt;co_ContextSnapshot</title>
<path fill="none" stroke="#374151" stroke-dasharray="5,2" d="M456.54,-611.3C438.35,-548.4 379.52,-344.97 357.62,-269.22"/>
<polygon fill="#374151" stroke="#374151" points="361.11,-268.69 354.97,-260.05 354.39,-270.63 361.11,-268.69"/>
<text xml:space="preserve" text-anchor="middle" x="378.09" y="-446.58" font-family="Helvetica,sans-Serif" font-size="8.00" fill="#374151">extrae contexto</text>
<text xml:space="preserve" text-anchor="middle" x="378.09" y="-436.83" font-family="Helvetica,sans-Serif" font-size="8.00" fill="#374151">del usuario</text>
</g>
<!-- graphrag&#45;&gt;bridge_center -->
<g id="edge14" class="edge">
<title>graphrag&#45;&gt;bridge_center</title>
<path fill="none" stroke="#374151" stroke-width="2" d="M472.6,-611.17C490.2,-579.83 526.05,-516 552.38,-469.11"/>
<polygon fill="#374151" stroke="#374151" stroke-width="2" points="555.36,-470.96 557.2,-460.53 549.25,-467.53 555.36,-470.96"/>
<text xml:space="preserve" text-anchor="middle" x="486.09" y="-546.3" font-family="Helvetica,sans-Serif" font-size="8.00" fill="#374151">usa propiedades</text>
<text xml:space="preserve" text-anchor="middle" x="486.09" y="-536.55" font-family="Helvetica,sans-Serif" font-size="8.00" fill="#374151">de puente</text>
</g>
</g>
</svg>
